/* XPM */
static char * maximize_toggled_active_xpm[] = {
"13 13 3 1",
" 	c None",
".	c #FFFFFF",
"+	c #000000",
".............",
".+++++++++++.",
".+.....+...+.",
".+.....+...+.",
".+.....+...+.",
".+.....+...+.",
".+.....+...+.",
".+++++++...+.",
".+.........+.",
".+.........+.",
".+.........+.",
".+++++++++++.",
"............."};
