/* XPM */
static char * right_active_xpm[] = {
"6 5 3 1",
" 	c None",
".	c #000000",
"+	c #FFFFFF",
".++++.",
".++++.",
".++++.",
".++++.",
".++++."};
