/* XPM */
static char * title_4_active_xpm[] = {
"7 22 3 1",
" 	c None",
".	c #000000",
"+	c #FFFFFF",
".......",
"+++++++",
"+++++++",
"+++++++",
"+++++++",
"++.....",
"+++++++",
"++.....",
"+++++++",
"++.....",
"+++++++",
"++.....",
"+++++++",
"++.....",
"+++++++",
"++.....",
"+++++++",
"+++++++",
"+++++++",
"+++++++",
"+++++++",
"......."};
