/* XPM */
static char * title_2_inactive_xpm[] = {
"7 22 3 1",
" 	c None",
".	c #000000",
"+	c #FFFFFF",
".......",
"+++++++",
"+++++++",
"+++++++",
"+++++++",
"+++++++",
"+++++++",
"+++++++",
"+++++++",
"+++++++",
"+++++++",
"+++++++",
"+++++++",
"+++++++",
"+++++++",
"+++++++",
"+++++++",
"+++++++",
"+++++++",
"+++++++",
"+++++++",
"......."};
