/* XPM */
static char * top_left_inactive_xpm[] = {
"21 22 3 1",
" 	c None",
".	c #000000",
"+	c #FFFFFF",
".....................",
".++++++++++++++++++++",
".++++++++++++++++++++",
".++++++++++++++++++++",
".++++++++++++++++++++",
".++++++++++++++++++++",
".++++++++++++++++++++",
".++++++++++++++++++++",
".++++++++++++++++++++",
".++++++++++++++++++++",
".++++++++++++++++++++",
".++++++++++++++++++++",
".++++++++++++++++++++",
".++++++++++++++++++++",
".++++++++++++++++++++",
".++++++++++++++++++++",
".++++++++++++++++++++",
".++++++++++++++++++++",
".++++++++++++++++++++",
".++++++++++++++++++++",
".++++++++++++++++++++",
".++++................"};
