/* XPM */
static char * top_left_active_xpm[] = {
"21 22 3 1",
" 	c None",
".	c #000000",
"+	c #FFFFFF",
".....................",
".++++++++++++++++++++",
".++++++++++++++++++++",
".++++++++++++++++++++",
".++++++++++++++++++++",
".++++++++++++++++++++",
".++++++++++++++++++++",
".++++++++++++++++++++",
".++++++++++++++++++++",
".++++++++++++++++++++",
".++++++++++++++++++++",
".++++++++++++++++++++",
".++++++++++++++++++++",
".++++++++++++++++++++",
".++++++++++++++++++++",
".++++++++++++++++++++",
".++++++++++++++++++++",
".++++++++++++++++++++",
".++++++++++++++++++++",
".++++++++++++++++++++",
".++++++++++++++++++++",
".++++................"};
