/* XPM */
static char * top_right_inactive_xpm[] = {
"36 22 3 1",
" 	c None",
".	c #000000",
"+	c #FFFFFF",
"....................................",
"+++++++++++++++++++++++++++++++++++.",
"+++++++++++++++++++++++++++++++++++.",
"+++++++++++++++++++++++++++++++++++.",
"+++++++++++++++++++++++++++++++++++.",
"+++++++++++++++++++++++++++++++++++.",
"+++++++++++++++++++++++++++++++++++.",
"+++++++++++++++++++++++++++++++++++.",
"+++++++++++++++++++++++++++++++++++.",
"+++++++++++++++++++++++++++++++++++.",
"+++++++++++++++++++++++++++++++++++.",
"+++++++++++++++++++++++++++++++++++.",
"+++++++++++++++++++++++++++++++++++.",
"+++++++++++++++++++++++++++++++++++.",
"+++++++++++++++++++++++++++++++++++.",
"+++++++++++++++++++++++++++++++++++.",
"+++++++++++++++++++++++++++++++++++.",
"+++++++++++++++++++++++++++++++++++.",
"+++++++++++++++++++++++++++++++++++.",
"+++++++++++++++++++++++++++++++++++.",
"+++++++++++++++++++++++++++++++++++.",
"...............................++++."};
